<svg height="512pt" viewBox="0 0 512 512" width="512pt" xmlns="http://www.w3.org/2000/svg"><path d="m423.425781 365.667969c-32.410156 0-58.78125 26.367187-58.78125 58.777343 0 32.410157 26.371094 58.78125 58.78125 58.78125 32.414063 0 58.78125-26.367187 58.78125-58.78125 0-32.410156-26.367187-58.777343-58.78125-58.777343zm0 102.351562c-24.023437 0-43.570312-19.546875-43.570312-43.574219 0-24.027343 19.546875-43.570312 43.570312-43.570312 24.027344 0 43.574219 19.546875 43.574219 43.570312 0 24.027344-19.546875 43.574219-43.574219 43.574219zm0 0"/><path d="m256 314.78125c32.410156 0 58.78125-26.367188 58.78125-58.78125s-26.367188-58.78125-58.78125-58.78125-58.78125 26.371094-58.78125 58.78125 26.371094 58.78125 58.78125 58.78125zm0-102.351562c24.027344 0 43.574219 19.542968 43.574219 43.570312s-19.546875 43.574219-43.574219 43.574219-43.570312-19.546875-43.570312-43.574219 19.542968-43.570312 43.570312-43.570312zm0 0"/><path d="m412.671875 90.648438-39.785156 39.785156c-2.96875 2.96875-2.96875 7.785156 0 10.753906 1.484375 1.484375 3.429687 2.226562 5.375 2.226562 1.949219 0 3.894531-.742187 5.378906-2.226562l39.785156-39.789062 39.785157 39.789062c1.484374 1.484375 3.433593 2.226562 5.378906 2.226562 1.945312 0 3.890625-.742187 5.375-2.226562 2.96875-2.972656 2.96875-7.785156 0-10.753906l-39.785156-39.785156 39.785156-39.785157c2.96875-2.972656 2.96875-7.785156 0-10.753906s-7.785156-2.96875-10.753906 0l-39.785157 39.785156-39.785156-39.785156c-2.96875-2.96875-7.785156-2.96875-10.753906 0s-2.96875 7.785156 0 10.753906zm0 0"/><path d="m100.640625 256 39.785156-39.785156c2.96875-2.96875 2.96875-7.785156 0-10.753906s-7.785156-2.96875-10.753906 0l-39.785156 39.785156-39.785157-39.785156c-2.972656-2.96875-7.785156-2.96875-10.753906 0s-2.96875 7.785156 0 10.753906l39.785156 39.785156-39.785156 39.785156c-2.972656 2.96875-2.972656 7.785156 0 10.753906 1.484375 1.484376 3.429688 2.226563 5.375 2.226563 1.945313 0 3.890625-.742187 5.375-2.226563l39.789063-39.785156 39.785156 39.785156c1.484375 1.484376 3.429687 2.226563 5.375 2.226563s3.894531-.742187 5.378906-2.226563c2.96875-2.96875 2.96875-7.785156 0-10.753906zm0 0"/><path d="m266.753906 424.445312 39.785156-39.785156c2.96875-2.96875 2.96875-7.785156 0-10.753906s-7.785156-2.96875-10.753906 0l-39.785156 39.785156-39.785156-39.785156c-2.96875-2.96875-7.785156-2.96875-10.753906 0s-2.96875 7.785156 0 10.753906l39.785156 39.785156-39.785156 39.789063c-2.96875 2.96875-2.96875 7.78125 0 10.75 1.484374 1.484375 3.429687 2.230469 5.375 2.230469 1.945312 0 3.894531-.742188 5.378906-2.230469l39.785156-39.785156 39.785156 39.789062c1.484375 1.484375 3.433594 2.226563 5.378906 2.226563 1.945313 0 3.890626-.742188 5.375-2.226563 2.96875-2.972656 2.96875-7.785156 0-10.753906zm0 0"/><path d="m447.660156 0h-383.320312c-35.476563 0-64.339844 28.863281-64.339844 64.339844v310.171875c0 4.199219 3.40625 7.605469 7.605469 7.605469s7.601562-3.40625 7.601562-7.605469v-27.628907h149.90625v149.910157h-100.773437c-27.089844 0-49.132813-22.042969-49.132813-49.132813v-42.730468c0-4.199219-3.402343-7.601563-7.601562-7.601563s-7.605469 3.402344-7.605469 7.601563v42.730468c0 35.476563 28.863281 64.339844 64.339844 64.339844h383.320312c35.476563 0 64.339844-28.863281 64.339844-64.339844v-383.320312c0-35.476563-28.863281-64.339844-64.339844-64.339844zm49.132813 64.339844v100.773437h-44.976563c-4.199218 0-7.605468 3.40625-7.605468 7.605469s3.40625 7.605469 7.605468 7.605469h44.976563v151.351562h-149.90625v-151.351562h74.511719c4.199218 0 7.605468-3.40625 7.605468-7.605469s-3.40625-7.605469-7.605468-7.605469h-74.511719v-149.90625h100.773437c27.089844 0 49.132813 22.042969 49.132813 49.132813zm-165.117188 115.984375v151.351562h-151.351562v-151.351562zm-151.351562-15.210938v-149.90625h151.351562v149.90625zm-115.984375-149.90625h100.773437v149.90625h-149.90625v-100.773437c0-27.089844 22.042969-49.132813 49.132813-49.132813zm-49.132813 316.46875v-151.351562h149.90625v151.351562zm165.117188 15.210938h151.351562v149.90625h-151.351562zm267.335937 149.90625h-100.773437v-149.90625h149.90625v100.773437c0 27.089844-22.042969 49.132813-49.132813 49.132813zm0 0"/></svg>